<svg width="24" height="24" viewBox="0 0 24 24" fill="none" xmlns="http://www.w3.org/2000/svg">
<path d="M9.59149 14.4563L9.91127 14.4577C14.5557 14.4981 17.1835 15.4362 17.1835 17.9983C17.1835 20.5062 14.665 21.4737 10.2236 21.5547L9.59149 21.5603C4.74715 21.5603 2.00049 20.6394 2.00049 18.0183C2.00049 15.3938 4.75808 14.4563 9.59149 14.4563ZM9.59149 15.9563C5.57414 15.9563 3.50049 16.6613 3.50049 18.0183C3.50049 19.3668 5.56916 20.0603 9.59149 20.0603C13.6091 20.0603 15.6835 19.3553 15.6835 17.9983C15.6835 16.6506 13.6129 15.9563 9.59149 15.9563ZM17.5872 13.7481C18.1677 13.7876 18.7449 13.8709 19.2996 13.9938C20.4877 14.2302 21.371 14.6713 21.7757 15.5205C22.0745 16.1492 22.0745 16.8807 21.7757 17.5093C21.3733 18.3563 20.4992 18.7943 19.3044 19.04C18.8987 19.1235 18.5021 18.8622 18.4187 18.4565C18.3352 18.0508 18.5965 17.6542 19.0022 17.5708C19.771 17.4127 20.2827 17.1563 20.4209 16.8655C20.5261 16.6442 20.5261 16.3857 20.4213 16.1651C20.2822 15.8733 19.7678 15.6163 18.9912 15.4617C18.4938 15.3516 17.991 15.2791 17.4854 15.2447C17.0721 15.2166 16.7599 14.8588 16.788 14.4455C16.8161 14.0323 17.1739 13.72 17.5872 13.7481ZM9.59149 2.49982C12.4395 2.49982 14.7265 4.78642 14.7265 7.63382C14.7265 10.482 12.4397 12.7688 9.59149 12.7688C6.74341 12.7688 4.45749 10.4822 4.45749 7.63382C4.45749 4.78628 6.74359 2.49982 9.59149 2.49982ZM16.0202 3.56942C18.2551 3.56942 20.0672 5.38189 20.0672 7.61642C20.0672 9.85163 18.2554 11.6634 16.0202 11.6634C15.606 11.6634 15.2702 11.3276 15.2702 10.9134C15.2702 10.4992 15.606 10.1634 16.0202 10.1634C17.427 10.1634 18.5672 9.0232 18.5672 7.61642C18.5672 6.21025 17.4266 5.06942 16.0202 5.06942C15.606 5.06942 15.2702 4.73363 15.2702 4.31942C15.2702 3.9052 15.606 3.56942 16.0202 3.56942ZM9.59149 3.99982C7.57207 3.99982 5.95749 5.61466 5.95749 7.63382C5.95749 9.65385 7.57195 11.2688 9.59149 11.2688C11.6113 11.2688 13.2265 9.6536 13.2265 7.63382C13.2265 5.6149 11.6111 3.99982 9.59149 3.99982Z" fill="#65B0F6"/>
</svg>
